<?xml version="1.0" encoding="UTF-8"?>
<svg width="63px" height="40px" viewBox="0 0 63 40" version="1.1" xmlns="http://www.w3.org/2000/svg" xmlns:xlink="http://www.w3.org/1999/xlink">
    <!-- Generator: Sketch 52.6 (67491) - http://www.bohemiancoding.com/sketch -->
    <title>devices-tab-tv-icon</title>
    <desc>Created with Sketch.</desc>
    <g id="Page-1" stroke="none" stroke-width="1" fill="none" fill-rule="evenodd">
        <g id="Devices-Tabs" transform="translate(-234.000000, -144.000000)" fill="#FFFFFF">
            <g id="devices-tab-tv-icon" transform="translate(234.000000, 144.000000)">
                <polygon id="Fill-1" points="3.03030303 33.3333333 60 33.3333333 60 3.03030303 3.03030303 3.03030303"></polygon>
                <g id="Group-6">
                    <path d="M1.47458135,34.6235867 L61.4073813,34.6235867 L61.4073813,1.62527571 L1.47458135,1.62527571 L1.47458135,34.6235867 Z M31.420172,0.230183805 C41.0219184,0.230183805 50.624305,0.272151018 60.2254111,0.195211128 C62.1629201,0.179314456 62.8448259,0.753502235 62.8300993,2.71960258 C62.7539052,13.4117039 62.760308,22.7284252 62.824977,33.4198907 C62.8371425,35.3580129 62.1238626,36.0129558 60.2010802,36.0091406 C40.9975874,35.9678092 21.7934544,35.9659016 2.5899616,36.0110482 C0.623639703,36.0161351 -0.00128057434,35.2925186 0.0102445947,33.3919126 C0.0729927373,22.7004471 0.0851581935,13.3830899 -4.87890978e-19,2.69162444 C-0.0160071792,0.688643815 0.708797896,0.181857923 2.61429251,0.196482861 C12.2153986,0.270243418 21.8184256,0.230183805 31.420172,0.230183805 Z" id="Fill-2"></path>
                    <path d="M42.5443292,39.9556801 C42.4521278,39.4603398 42.361207,39.5398231 42.2497971,38.9351138 L20.6657166,38.9351138 C20.4832347,39.4609757 20.289868,39.4425355 20.0965013,39.9995549 C19.9261849,39.9900169 19.7552282,39.9792072 19.5842716,39.9690333 C19.5842716,39.239694 19.3768185,38.9897983 19.6598254,38.3908117 C19.8378253,38.0143785 20.7489539,37.8159881 21.3335361,37.8128087 C28.0539902,37.773385 34.7757249,37.7682981 41.4961791,37.8223467 C42.0922864,37.8267978 42.9310626,38.1676225 43.2115084,38.6222673 C43.5098822,39.1067978 43.2780983,39.335074 43.2780983,39.9995549 C43.0341488,39.9855658 42.7889189,39.970305 42.5443292,39.9556801" id="Fill-4"></path>
                    <polygon id="Fill-5" points="30.9233091 38.6501341 32.0873512 38.6501341 32.0873512 35.2181222 30.9233091 35.2181222"></polygon>
                </g>
            </g>
        </g>
    </g>
</svg>