<?xml version="1.0" encoding="UTF-8"?>
<svg width="43px" height="40px" viewBox="0 0 43 40" version="1.1" xmlns="http://www.w3.org/2000/svg" xmlns:xlink="http://www.w3.org/1999/xlink">
    <!-- Generator: Sketch 52.6 (67491) - http://www.bohemiancoding.com/sketch -->
    <title>devices-tab-mobile-icon</title>
    <desc>Created with Sketch.</desc>
    <g id="Page-1" stroke="none" stroke-width="1" fill="none" fill-rule="evenodd">
        <g id="Devices-Tabs" transform="translate(-607.000000, -144.000000)">
            <g id="devices-tab-mobile-icon" transform="translate(607.000000, 144.000000)">
                <polygon id="Fill-1" fill="#FFFFFF" points="3.17460317 36.1904762 24.7619048 36.1904762 24.7619048 3.17460317 3.17460317 3.17460317"></polygon>
                <path d="M1.81144344,37.5553423 L25.995996,37.5553423 L25.995996,1.84110025 L1.81144344,1.84110025 L1.81144344,37.5553423 Z M0.00254654655,2.6515699 C-0.0509309309,0.792507313 0.735951952,0.039017172 2.66623423,0.0908940327 C5.39188789,0.164882342 22.4291331,0.154677058 25.1547868,0.0934453537 C26.9068108,0.0534746577 27.8159279,0.720219884 27.8142302,2.43725893 C27.8082883,8.82576676 27.8082883,30.6667756 27.8125325,37.054433 C27.8133814,38.6158414 27.0035796,39.3667802 25.3848248,39.3642289 C22.469029,39.3608272 5.24673473,39.370182 2.33093894,39.3608272 C0.702846847,39.3548741 -0.0186746747,38.5894778 0.0101861862,36.9983039 C0.0687567568,33.7606775 0.0271631632,15.0679989 0.0271631632,11.8286716 C0.0263143143,8.7696377 0.089977978,5.70890292 0.00254654655,2.6515699 Z" id="Fill-2" fill="#FFFFFF"></path>
                <polygon id="Fill-4" fill="#FEFEFE" points="32.6507937 36.8253968 39.6349206 36.8253968 39.6349206 23.4920635 32.6507937 23.4920635"></polygon>
                <path d="M31.3809524,38.0952381 L40.9047619,38.0952381 L40.9047619,22.2222222 L31.3809524,22.2222222 L31.3809524,38.0952381 Z M42.1729724,37.3833914 C42.2213564,38.8206706 41.5183646,39.4037015 39.794564,39.3631052 C37.3601819,39.3060978 34.9210563,39.3147353 32.4857255,39.3613777 C30.9213077,39.3924727 30.1101632,38.8768143 30.1111119,37.5500951 C30.1158555,32.612903 30.1158555,27.675711 30.1120606,22.7376552 C30.1111119,21.5318609 30.8349754,20.9514212 32.2808048,20.9531487 C34.8850054,20.9566037 37.4892061,20.9479662 40.0934067,20.95574 C41.5477745,20.9609225 42.1928952,21.5517271 42.1663314,22.7817064 C42.1141525,25.2848524 42.1511521,27.7879984 42.1511521,30.2911444 C42.1521008,32.6560905 42.0951784,35.0210366 42.1729724,37.3833914 Z" id="Fill-5" fill="#FFFFFF"></path>
            </g>
        </g>
    </g>
</svg>