<?xml version="1.0" encoding="UTF-8"?>
<svg width="71px" height="40px" viewBox="0 0 71 40" version="1.1" xmlns="http://www.w3.org/2000/svg" xmlns:xlink="http://www.w3.org/1999/xlink">
    <!-- Generator: Sketch 52.6 (67491) - http://www.bohemiancoding.com/sketch -->
    <title>devices-tab-laptop-icon</title>
    <desc>Created with Sketch.</desc>
    <g id="Page-1" stroke="none" stroke-width="1" fill="none" fill-rule="evenodd">
        <g id="Devices-Tabs" transform="translate(-957.000000, -144.000000)">
            <g id="devices-tab-laptop-icon" transform="translate(957.000000, 144.000000)">
                <polygon id="Fill-1" fill="#FEFEFE" points="10.4615385 32.6153846 59.6923077 32.6153846 59.6923077 3.07692308 10.4615385 3.07692308"></polygon>
                <path d="M9.23076923,33.8461538 L60.9230769,33.8461538 L60.9230769,1.84615385 L9.23076923,1.84615385 L9.23076923,33.8461538 Z M35.0579261,35.6483504 C26.848973,35.6483504 18.6390609,35.5846945 10.4301078,35.6901543 C8.18580937,35.719607 7.37345007,35.0241427 7.3907139,32.7771848 C7.47223756,22.8886701 7.46840115,12.9992053 7.38495929,3.11069054 C7.36481815,0.774424425 8.22705075,-0.010348169 10.5816459,0.000102797741 C26.9132328,0.0694592135 43.2448198,0.064708774 59.5773659,0.00485323717 C61.9099017,-0.00369755381 62.7778889,0.769673986 62.7548704,3.13159247 C62.657042,12.9345993 62.6330645,22.7395063 62.7682978,32.5406129 C62.8037846,35.1163012 61.8293371,35.7234073 59.4248687,35.6911044 C51.3051121,35.5799441 43.18056,35.6483504 35.0579261,35.6483504 Z" id="Fill-2" fill="#FFFFFF"></path>
                <path d="M2.55798029,39.9616837 C1.70435016,39.9592538 0.852660096,39.3785103 0,39.0674845 C0.0601421228,38.7625334 0.12125428,38.4587972 0.181396403,38.1538462 L69.9317083,38.1538462 C70.0054309,38.4843111 70.0801236,38.814776 70.1538462,39.1452409 C69.2682049,39.4307529 68.3825636,39.9641135 67.4969224,39.9653285 C64.1939558,39.9726182 60.8900192,39.9786929 57.5880226,39.9835527 C39.2446752,40.0102814 20.9013277,40.0054217 2.55798029,39.9616837 Z" id="Fill-4" fill="#FFFFFF"></path>
            </g>
        </g>
    </g>
</svg>