<svg xmlns="http://www.w3.org/2000/svg" viewBox="0 0 42.72 12.35"><defs><style>.cls-1{fill:#fff;}</style></defs><title>logo_ipad</title><g id="Layer_2" data-name="Layer 2"><g id="Layer_1-2" data-name="Layer 1"><path class="cls-1" d="M15.69,1.81a.7.7,0,0,1,1.39,0,.7.7,0,1,1-1.39,0Zm.23,2.41h.93v7.69h-.93Z"/><path class="cls-1" d="M23.07,1.61a3.09,3.09,0,0,1,3.29,3.23A3.09,3.09,0,0,1,23.05,8H20.38v3.88h-1V1.61ZM20.38,7.16h2.45a2.24,2.24,0,0,0,2.54-2.32,2.24,2.24,0,0,0-2.54-2.36H20.38Z"/><path class="cls-1" d="M27.77,9.79c0-1.35,1-2.13,2.78-2.25L33,7.39V6.64c0-1.1-.66-1.71-1.91-1.71-1.06,0-1.82.45-2,1.19h-1c.18-1.22,1.37-2,3-2,1.8,0,2.82,1,2.82,2.55v5.27H33V10.59h-.08A2.74,2.74,0,0,1,30.37,12,2.32,2.32,0,0,1,27.77,9.79ZM33,9.05v-.9l-2.28.16c-1.3.1-1.93.58-1.93,1.46s.75,1.44,1.78,1.44A2.27,2.27,0,0,0,33,9.05Z"/><path class="cls-1" d="M35.85,8.07c0-2.38,1.31-4,3.26-4A2.74,2.74,0,0,1,41.7,5.72h.08V1.16h.94V11.91h-.9V10.38h-.09A2.79,2.79,0,0,1,39.11,12C37.14,12,35.85,10.46,35.85,8.07Zm1,0c0,1.92,1,3.13,2.5,3.13S41.8,10,41.8,8.06s-1-3.12-2.49-3.12S36.81,6.16,36.81,8.06Z"/><path class="cls-1" d="M5.55,1.07A2.67,2.67,0,0,1,7.49,0a2.61,2.61,0,0,1-.64,2A2.07,2.07,0,0,1,5,2.84a2.28,2.28,0,0,1,.53-1.77ZM5.12,3.54A11.25,11.25,0,0,1,7.32,3,2.77,2.77,0,0,1,9.74,4.2,2.69,2.69,0,0,0,8.4,6.54a2.74,2.74,0,0,0,1.66,2.51S8.9,12.33,7.33,12.33c-.72,0-1.28-.49-2-.49s-1.54.51-2,.51C1.81,12.35,0,9.24,0,6.75S1.53,3,3,3C3.91,3,4.63,3.54,5.12,3.54Z"/></g></g></svg>