<svg xmlns="http://www.w3.org/2000/svg" viewBox="0 0 54.89 11.87"><defs><style>.cls-1{fill:#fff;}</style></defs><title>logo_android</title><g id="Layer_2" data-name="Layer 2"><g id="Layer_1-2" data-name="Layer 1"><path class="cls-1" d="M0,7.45A4.76,4.76,0,0,1,.31,5.71,4.4,4.4,0,0,1,1.18,4.3a4.12,4.12,0,0,1,1.35-.93A4.18,4.18,0,0,1,4.24,3a3.7,3.7,0,0,1,1.28.2,3.58,3.58,0,0,1,1.12.68V3.19H8.75V11.7H6.64V11a3.58,3.58,0,0,1-1.12.68,3.7,3.7,0,0,1-1.28.21,4.35,4.35,0,0,1-1.71-.34,4.15,4.15,0,0,1-1.35-.94A4.4,4.4,0,0,1,.31,9.18,4.67,4.67,0,0,1,0,7.45ZM4.51,9.88A3.38,3.38,0,0,0,5,9.83a2.57,2.57,0,0,0,.55-.19,2.43,2.43,0,0,0,.54-.34,2.87,2.87,0,0,0,.51-.53V6.12a2.8,2.8,0,0,0-.51-.52,2.92,2.92,0,0,0-.54-.35A2.08,2.08,0,0,0,5,5.07,2.53,2.53,0,0,0,4.51,5a2.39,2.39,0,0,0-.92.18,2.42,2.42,0,0,0-.74.52,2.12,2.12,0,0,0-.49.77,2.54,2.54,0,0,0-.18,1,2.49,2.49,0,0,0,.18,1A2.25,2.25,0,0,0,3.59,9.7a2.39,2.39,0,0,0,.92.18ZM14,5.13a1.78,1.78,0,0,0-1.87,1.73V11.7H10.05V6.92A4,4,0,0,1,14,3h.06a4,4,0,0,1,4,3.89V11.7H15.89V6.86A1.77,1.77,0,0,0,14,5.13m5,2.32a4.76,4.76,0,0,1,.32-1.74,4.08,4.08,0,0,1,.87-1.41,4,4,0,0,1,1.34-.93A4.18,4.18,0,0,1,23.24,3a3.8,3.8,0,0,1,1.29.2,3.43,3.43,0,0,1,1.11.68V.64h2.11V11.7H25.64V11a3.24,3.24,0,0,1-1.11.67,3.79,3.79,0,0,1-1.29.21,4.35,4.35,0,0,1-1.71-.34,4,4,0,0,1-1.34-.94,4.08,4.08,0,0,1-.87-1.41A4.67,4.67,0,0,1,19,7.45Zm4.52,2.43A3.26,3.26,0,0,0,24,9.83a2.4,2.4,0,0,0,.55-.19,2.48,2.48,0,0,0,.55-.34,3.2,3.2,0,0,0,.5-.53V6.12a3.12,3.12,0,0,0-.5-.52,3,3,0,0,0-.55-.35A2,2,0,0,0,24,5.07,2.44,2.44,0,0,0,23.52,5a2.32,2.32,0,0,0-.92.18,2.46,2.46,0,0,0-.75.52,2.26,2.26,0,0,0-.49.77,2.54,2.54,0,0,0-.18,1,2.49,2.49,0,0,0,.18,1,2.4,2.4,0,0,0,.49.78,2.27,2.27,0,0,0,.75.51,2.32,2.32,0,0,0,.92.18Zm14.12,0a2.21,2.21,0,0,0,.89-.18,1.94,1.94,0,0,0,.73-.5,2.2,2.2,0,0,0,.49-.77,2.76,2.76,0,0,0,0-2,2.38,2.38,0,0,0-.5-.77,2.46,2.46,0,0,0-.73-.51,2.27,2.27,0,0,0-1.77,0A2.39,2.39,0,0,0,36,5.7a2.53,2.53,0,0,0-.49.77,2.76,2.76,0,0,0,0,2A2.36,2.36,0,0,0,36,9.2a1.94,1.94,0,0,0,.73.5A2.26,2.26,0,0,0,37.64,9.88Zm0,2a4.56,4.56,0,0,1-3.16-1.26,4.49,4.49,0,0,1-1-1.41,4.41,4.41,0,0,1-.35-1.75,4.31,4.31,0,0,1,.35-1.73,4.63,4.63,0,0,1,1-1.41,4.5,4.5,0,0,1,1.43-.94A4.39,4.39,0,0,1,37.64,3a4.46,4.46,0,0,1,1.74.34,4.57,4.57,0,0,1,1.42.94,4.63,4.63,0,0,1,1,1.41,4.35,4.35,0,0,1,.35,1.73,4.41,4.41,0,0,1-.35,1.75,4.49,4.49,0,0,1-1,1.41,4.56,4.56,0,0,1-3.15,1.26Zm6.47-9.34a1.13,1.13,0,0,1-.48-.11,1.09,1.09,0,0,1-.4-.27,1.26,1.26,0,0,1-.28-.4,1.33,1.33,0,0,1-.1-.48A1.34,1.34,0,0,1,43,.78a1.42,1.42,0,0,1,.28-.41,1.41,1.41,0,0,1,.4-.27,1.12,1.12,0,0,1,.48-.1,1.16,1.16,0,0,1,.49.1,1.23,1.23,0,0,1,.4.27,1.42,1.42,0,0,1,.28.41,1.34,1.34,0,0,1,.1.49,1.29,1.29,0,0,1-.1.48,1.26,1.26,0,0,1-.28.4,1.09,1.09,0,0,1-.4.27,1.17,1.17,0,0,1-.49.11Zm-1,.66h2.11V11.7H43.06Zm3.08,4.26a4.76,4.76,0,0,1,.31-1.74,4.4,4.4,0,0,1,.87-1.41,4.08,4.08,0,0,1,1.34-.93A4.19,4.19,0,0,1,50.38,3a3.7,3.7,0,0,1,1.28.2,3.58,3.58,0,0,1,1.12.68V.64h2.11V11.7H52.78V11a3.37,3.37,0,0,1-1.12.67,3.7,3.7,0,0,1-1.28.21,4.36,4.36,0,0,1-1.72-.34,4.11,4.11,0,0,1-1.34-.94,4.4,4.4,0,0,1-.87-1.41A4.67,4.67,0,0,1,46.14,7.45Zm4.51,2.43a3.15,3.15,0,0,0,.52-.05,2.47,2.47,0,0,0,.56-.19,2.68,2.68,0,0,0,.54-.34,2.87,2.87,0,0,0,.51-.53V6.12a2.8,2.8,0,0,0-.51-.52,3.29,3.29,0,0,0-.54-.35,2,2,0,0,0-.56-.18,2.38,2.38,0,0,0-1.44.12,2.42,2.42,0,0,0-.74.52,2.28,2.28,0,0,0-.5.77,2.54,2.54,0,0,0-.18,1,2.49,2.49,0,0,0,.18,1,2.43,2.43,0,0,0,.5.78,2.23,2.23,0,0,0,.74.51,2.36,2.36,0,0,0,.92.18ZM33,5.1c-1.42,0-2,.73-2,1.76V11.7H28.81V6.92A3.76,3.76,0,0,1,33,3"/></g></g></svg>