<svg xmlns="http://www.w3.org/2000/svg" viewBox="0 0 59.97 12.35"><defs><style>.cls-1{fill:#fff;}</style></defs><title>logo_iphone</title><g id="Layer_2" data-name="Layer 2"><g id="Layer_1-2" data-name="Layer 1"><path class="cls-1" d="M15.47,1.93a.69.69,0,1,1,.69.69A.69.69,0,0,1,15.47,1.93Zm.23,2.29h.93v7.69H15.7Z"/><path class="cls-1" d="M22.85,1.61a3.1,3.1,0,0,1,3.3,3.23A3.1,3.1,0,0,1,22.84,8H20.17v3.88h-1V1.61ZM20.17,7.16h2.45a2.25,2.25,0,0,0,2.54-2.32,2.25,2.25,0,0,0-2.54-2.36H20.17Z"/><path class="cls-1" d="M28,1.16H29V5.61h.09a2.57,2.57,0,0,1,2.52-1.52,2.53,2.53,0,0,1,2.67,2.82v5h-.93V7.15c0-1.45-.7-2.21-2-2.21A2.25,2.25,0,0,0,29,7.34v4.57H28Z"/><path class="cls-1" d="M36.18,8.06c0-2.45,1.34-4,3.49-4s3.5,1.52,3.5,4-1.35,4-3.5,4S36.18,10.52,36.18,8.06Zm6,0c0-1.95-1-3.12-2.53-3.12s-2.53,1.17-2.53,3.12.94,3.13,2.53,3.13S42.2,10,42.2,8.06Z"/><path class="cls-1" d="M45.14,4.22H46V5.61h.09a2.73,2.73,0,0,1,5.18,1.3v5h-.94V7.15c0-1.46-.67-2.21-2-2.21a2.22,2.22,0,0,0-2.29,2.4v4.57h-.94Z"/><path class="cls-1" d="M59.85,10a3.07,3.07,0,0,1-3.18,2c-2.11,0-3.44-1.54-3.44-4s1.34-4,3.43-4S60,5.55,60,7.9v.41H54.19v0c.05,1.73,1,2.85,2.5,2.85A2.22,2.22,0,0,0,58.9,10ZM54.2,7.54H59a2.36,2.36,0,0,0-2.33-2.62A2.49,2.49,0,0,0,54.2,7.54Z"/><path class="cls-1" d="M5.55,1.07A2.67,2.67,0,0,1,7.49,0a2.61,2.61,0,0,1-.64,2A2.07,2.07,0,0,1,5,2.84a2.28,2.28,0,0,1,.53-1.77ZM5.12,3.54A11.25,11.25,0,0,1,7.32,3,2.77,2.77,0,0,1,9.74,4.2,2.69,2.69,0,0,0,8.4,6.54a2.74,2.74,0,0,0,1.66,2.51S8.9,12.33,7.33,12.33c-.72,0-1.28-.49-2-.49s-1.54.51-2,.51C1.81,12.35,0,9.24,0,6.75S1.53,3,3,3C3.91,3,4.63,3.54,5.12,3.54Z"/></g></g></svg>