<svg width="121" height="17" viewBox="0 0 121 17" fill="none" xmlns="http://www.w3.org/2000/svg">
<path d="M21.5 10.8301C21.4514 9.53799 21.9524 8.28314 22.886 7.35853C23.8195 6.43392 25.1039 5.92047 26.4393 5.93808C28.2665 5.88545 29.9346 6.9393 30.6206 8.57977L29.0037 9.3258C28.6116 8.24949 27.5415 7.54559 26.3635 7.58914C25.4988 7.64506 24.694 8.0359 24.1306 8.67338C23.5672 9.31085 23.2929 10.1412 23.3696 10.9769C23.246 12.7054 24.5799 14.2093 26.3635 14.3524C27.5811 14.3971 28.6993 13.7047 29.1679 12.6157L30.7848 13.2761C30.0656 14.9234 28.3741 15.973 26.5277 15.9178C25.1562 15.9122 23.846 15.3671 22.8978 14.4077C21.9497 13.4482 21.4451 12.1569 21.5 10.8301ZM33.8545 6.20714L33.7661 7.52799H33.8545C34.543 6.5421 35.695 5.95464 36.9242 5.96254C39.3875 5.96254 40.5876 7.52799 40.5876 9.83947V15.5264H38.7938V10.0841C38.7938 8.18841 37.7706 7.52799 36.4063 7.52799C34.8897 7.65766 33.7631 8.9446 33.8798 10.4143V15.5264H32.0607V2H33.8545V6.20714ZM42.4698 15.5264V6.20714H44.1752V7.68698H44.2636C44.7877 6.64609 45.8721 5.97926 47.068 5.96254C47.5361 5.94306 48.0025 6.02669 48.4323 6.20714L47.7502 7.8582C47.4503 7.75221 47.1345 7.69438 46.8154 7.68698C46.1009 7.70828 45.4265 8.01187 44.9492 8.5271C44.4719 9.04233 44.2333 9.72428 44.2889 10.4143V15.5264H42.4698ZM58.3109 10.8301C58.4032 12.5984 57.4813 14.2721 55.9131 15.1831C54.3449 16.0941 52.3857 16.0941 50.8175 15.1831C49.2493 14.2721 48.3274 12.5984 48.4197 10.8301C48.3274 9.06175 49.2493 7.3881 50.8175 6.4771C52.3857 5.5661 54.3449 5.5661 55.9131 6.4771C57.4813 7.3881 58.4032 9.06175 58.3109 10.8301ZM56.5171 10.8301C56.6241 9.67246 56.0467 8.55557 55.0254 7.94473C54.004 7.3339 52.7139 7.3339 51.6926 7.94473C50.6712 8.55557 50.0938 9.67246 50.2009 10.8301C50.0938 11.9877 50.6712 13.1046 51.6926 13.7155C52.7139 14.3263 54.004 14.3263 55.0254 13.7155C56.0467 13.1046 56.6241 11.9877 56.5171 10.8301ZM59.751 6.20714H61.4185V7.52799H61.5069C62.1606 6.54887 63.2839 5.95901 64.4881 5.96254C65.8064 5.86611 67.0414 6.59433 67.5578 7.77259C68.2484 6.63463 69.517 5.94345 70.8801 5.96254C73.1793 5.96254 74.2783 7.52799 74.2783 9.83947V15.5264H72.4466V10.0841C72.4466 8.18841 71.676 7.52799 70.3117 7.52799C68.8204 7.68854 67.73 8.96614 67.8484 10.4143V15.5264H66.0546V10.0841C66.0546 8.18841 65.284 7.52799 63.9197 7.52799C62.4132 7.67012 61.3012 8.95328 61.4185 10.4143V15.5264H59.6626V6.20714H59.751ZM75.6047 10.8301C75.5431 9.57844 76.0034 8.3553 76.8823 7.43541C77.7612 6.51553 78.985 5.97602 80.2787 5.93808C83.0957 5.93808 84.9653 7.91935 84.9653 10.8913V11.2215H77.3858C77.3757 12.016 77.6946 12.7814 78.2714 13.3467C78.8482 13.912 79.6348 14.2301 80.4555 14.2301C81.5909 14.2813 82.6412 13.6488 83.0957 12.6401L84.7127 13.3006C83.9986 14.9074 82.3368 15.9232 80.5313 15.8567C79.1797 15.8515 77.889 15.3117 76.9587 14.3625C76.0283 13.4133 75.5392 12.1371 75.6047 10.8301ZM80.2787 7.52799C78.9408 7.54766 77.8036 8.47963 77.5627 9.75386H83.0957C82.9304 8.39781 81.6841 7.41303 80.2787 7.52799ZM85.9885 10.8301C85.94 9.53799 86.4409 8.28314 87.3745 7.35853C88.308 6.43392 89.5924 5.92047 90.9278 5.93808C92.7571 5.87821 94.4291 6.93453 95.1091 8.57977L93.4922 9.24019C93.1223 8.13966 92.0469 7.40732 90.852 7.44238C89.9883 7.49815 89.1845 7.88941 88.6232 8.52732C88.0618 9.16523 87.7905 9.99567 87.8708 10.8301C87.7253 12.5657 89.0595 14.0873 90.852 14.2301C92.0675 14.2804 93.1867 13.5922 93.6564 12.5056L95.2734 13.166C94.553 14.8109 92.8606 15.8563 91.0162 15.7955C89.6635 15.8367 88.3534 15.3345 87.3964 14.408C86.4394 13.4815 85.9207 12.2131 85.9633 10.9035L85.9885 10.8301ZM96.2208 12.7258C96.2208 10.6589 98.1788 9.50925 100.389 9.50925C101.27 9.47264 102.144 9.67151 102.916 10.0841V9.75386C102.911 9.12579 102.636 8.52816 102.156 8.10543C101.676 7.6827 101.036 7.47335 100.389 7.52799C99.448 7.50765 98.5822 8.02499 98.1788 8.84883L96.5619 8.18841C97.4766 6.52566 99.4215 5.65428 101.323 6.05542C103.224 6.45655 104.618 8.0324 104.735 9.91285V15.5264H103.03V14.2301H102.941C102.24 15.2398 101.052 15.8307 99.7958 15.7955C98.8967 15.8843 98.0001 15.6063 97.3217 15.0284C96.6432 14.4504 96.2443 13.6248 96.2208 12.7502V12.7258ZM102.941 11.5028C102.26 11.0734 101.454 10.8675 100.642 10.9157C98.7725 10.9157 98.002 11.9063 98.002 12.738C98.002 13.5696 99.0252 14.2301 99.96 14.2301C101.562 14.2643 102.893 13.0413 102.941 11.4905V11.5028ZM105.847 13.1538L107.464 12.4934C107.85 13.5236 108.858 14.2119 109.99 14.2178C111.127 14.2301 111.948 13.7164 111.948 12.8848C111.948 12.3955 111.683 11.8941 110.685 11.6617L108.727 11.2459C107.881 11.0013 106.2 10.3409 106.2 8.68984C106.2 7.03878 107.994 5.97477 109.99 5.97477C111.501 5.94428 112.885 6.78525 113.515 8.11503L111.948 8.76322C111.561 7.93646 110.67 7.44339 109.737 7.54022C108.714 7.54022 107.868 7.95604 107.868 8.68984C107.868 9.42364 108.373 9.60709 109.131 9.76609L111.001 10.1819C112.471 10.2982 113.62 11.4581 113.679 12.8848C113.679 14.5358 112.15 15.771 109.889 15.771C108.089 15.8277 106.45 14.7715 105.809 13.1416L105.847 13.1538ZM116.066 12.6524V7.76036H114.361V6.20714H116.066V3.40646H117.86V6.20714H120.159V7.77259H117.86V12.4812C117.86 13.5452 118.277 13.961 119.123 13.961C119.417 13.9961 119.715 13.9359 119.97 13.7898L120.563 15.2818C120.104 15.4531 119.615 15.5362 119.123 15.5264C118.295 15.6424 117.459 15.3788 116.86 14.8133C116.261 14.2477 115.967 13.4445 116.066 12.6401V12.6524ZM16.7067 5.28338H10.7316C11.8844 6.0006 12.5834 7.23439 12.5885 8.56104C12.5756 8.84899 12.5375 9.13538 12.4748 9.41714C12.4083 9.84812 12.2583 10.2631 12.0327 10.6401L8.24298 16.9998H8.58405C10.9067 17.0161 13.14 16.1342 14.7883 14.5499C16.4367 12.9655 17.3636 10.8098 17.3636 8.56104C17.3761 7.43945 17.1481 6.32754 16.6941 5.29561L16.7067 5.28338ZM8.68511 12.3401C7.60075 12.3116 6.57119 11.8725 5.81755 11.1171C5.54098 10.8625 5.29902 10.5748 5.0975 10.261L5.00908 10.1999L1.30777 4.08484C-0.247464 6.51179 -0.427055 9.53624 0.830666 12.1198C2.08839 14.7033 4.6122 16.4941 7.53556 16.8775L10.5673 11.8509C9.9961 12.1733 9.34632 12.3422 8.68511 12.3401ZM8.68511 0.11007C5.91784 0.104076 3.31353 1.37612 1.67412 3.53449L4.65537 8.42651C4.67864 8.49816 4.67864 8.575 4.65537 8.64665V8.48766C4.66135 6.62078 6.06167 5.0322 7.96506 4.73303C8.28647 4.65219 8.61872 4.6192 8.95039 4.63519H16.3783C14.8837 1.85481 11.9225 0.103599 8.68511 0.0856094V0.11007ZM11.8306 8.56104C11.8306 10.2497 10.4167 11.6186 8.67248 11.6186C6.9283 11.6186 5.51437 10.2497 5.51437 8.56104C5.51437 6.86567 6.93396 5.49129 8.68511 5.49129C9.52797 5.47772 10.3401 5.79759 10.9338 6.37699C11.5275 6.95638 11.8513 7.74516 11.8306 8.56104Z" fill="#F9F9F9"/>
</svg>
