<svg xmlns="http://www.w3.org/2000/svg" viewBox="0 0 61.2 13"><defs><style>.cls-1{fill:#fff;}</style></defs><title>logo_firetablet</title><g id="Layer_2" data-name="Layer 2"><g id="Layer_1-2" data-name="Layer 1"><path class="cls-1" d="M38.88,12.85H37.49V4.25h.86l1.55,0a2.36,2.36,0,0,1,1.86.88,2.13,2.13,0,0,1,.4,1.78,1.88,1.88,0,0,1-1,1.37,2.13,2.13,0,0,1,1.52,2.29,2.39,2.39,0,0,1-2.21,2.21,5.63,5.63,0,0,1-.77.05Zm-.27-.94.45,0,1.17,0a1.46,1.46,0,0,0,1-.44,1.48,1.48,0,0,0,.27-1.49A1.25,1.25,0,0,0,40.39,9a10.79,10.79,0,0,0-1.27-.05h-.51ZM38.73,8h.47a3.38,3.38,0,0,0,1-.11,1.19,1.19,0,0,0,.61-.4A1.43,1.43,0,0,0,41,6.23a1.05,1.05,0,0,0-.9-.94,8,8,0,0,0-1.09-.06h-.44V8Z"/><path class="cls-1" d="M35.17,12.84l-.84-2.24H31.06l-.83,2.24H29.05l3.26-8.62h.77l3.28,8.62ZM34,9.6,32.69,6.06,31.42,9.6Z"/><polygon class="cls-1" points="49.82 12.83 49.82 4.24 54.09 4.24 53.73 5.2 50.94 5.2 50.94 7.97 53.69 7.97 53.69 8.91 50.95 8.91 50.95 11.89 54.12 11.89 54.12 12.83 49.82 12.83"/><polygon class="cls-1" points="25.9 12.84 25.9 5.21 23.49 5.21 23.49 4.25 29.71 4.25 29.37 5.2 27.02 5.2 27.02 12.84 25.9 12.84"/><polygon class="cls-1" points="57.39 12.84 57.39 5.2 54.97 5.2 54.97 4.25 61.2 4.25 60.86 5.2 58.5 5.2 58.5 12.84 57.39 12.84"/><path class="cls-1" d="M44.33,12.83V4.25h1.11v7.64h3.12V12s0,.06,0,.09v.72Z"/><path class="cls-1" d="M18.34,13a4.74,4.74,0,0,1-.75-.06,3.52,3.52,0,0,1-2.75-2,5.58,5.58,0,0,1,.09-5.21A3.19,3.19,0,0,1,17.82,4a4,4,0,0,1,.9.11A3,3,0,0,1,20.79,5.9a6.65,6.65,0,0,1,.47,2.83V8.8H15.79a3.26,3.26,0,0,0,.59,1.92,2.52,2.52,0,0,0,2,1h.12a4.09,4.09,0,0,0,1.88-.47l.23-.12.49,1-.05,0a4.32,4.32,0,0,1-1.18.54A5.32,5.32,0,0,1,18.34,13Zm1.39-5.37a2.84,2.84,0,0,0-.51-1.7,1.72,1.72,0,0,0-1.41-.73,1.76,1.76,0,0,0-1.06.36A2.3,2.3,0,0,0,15.86,7c0,.15,0,.3-.07.46s0,.09,0,.14Z"/><path class="cls-1" d="M1.12,12.81V5.42H0V4.2H1.12V3.45a11,11,0,0,1,0-1.29A2.29,2.29,0,0,1,3.6,0l.32,0a4.42,4.42,0,0,1,.71.13L5,.22,5,.24,4.7,1.46H4.64L4.42,1.4A2.56,2.56,0,0,0,4,1.31H3.73a1.51,1.51,0,0,0-.39,0,.91.91,0,0,0-.7.79,4.85,4.85,0,0,0-.07.73c0,.32,0,.64,0,1V4.2H4.75L4.3,5.42H2.57v7.39Z"/><path class="cls-1" d="M9.58,12.81V4.21h1.23l.16,1L11,5.13c.11-.12.22-.24.34-.35A2.73,2.73,0,0,1,13.25,4h.25a3,3,0,0,1,.5.1l.23.06.08,0-.53,1.37-.07,0a1.64,1.64,0,0,0-.7-.17,1.76,1.76,0,0,0-1,.39l-.65.53L11,6.51v6.3Z"/><rect class="cls-1" x="5.95" y="4.21" width="1.42" height="8.6"/><path class="cls-1" d="M6.64,2.43a.91.91,0,0,1-.93-.91A1,1,0,0,1,6,.81,1,1,0,0,1,6.62.52h0a.91.91,0,0,1,1,.92.93.93,0,0,1-.92,1Z"/></g></g></svg>