<svg xmlns="http://www.w3.org/2000/svg" viewBox="0 0 36.53 13"><defs><style>.cls-1{fill:#fff;}</style></defs><title>logo_firetv</title><g id="Layer_2" data-name="Layer 2"><g id="Layer_1-2" data-name="Layer 1"><path class="cls-1" d="M18.34,13a4.74,4.74,0,0,1-.75-.06,3.52,3.52,0,0,1-2.75-2,5.58,5.58,0,0,1,.09-5.21A3.19,3.19,0,0,1,17.82,4a4,4,0,0,1,.9.11A3,3,0,0,1,20.79,5.9a6.65,6.65,0,0,1,.47,2.83V8.8H15.79a3.26,3.26,0,0,0,.59,1.92,2.52,2.52,0,0,0,2,1h.12a4.09,4.09,0,0,0,1.88-.47l.23-.12.49,1-.05,0a4.32,4.32,0,0,1-1.18.54A5.32,5.32,0,0,1,18.34,13Zm1.39-5.37a2.84,2.84,0,0,0-.51-1.7,1.72,1.72,0,0,0-1.41-.73,1.76,1.76,0,0,0-1.06.36A2.3,2.3,0,0,0,15.86,7c0,.15,0,.3-.07.46s0,.09,0,.14Z"/><path class="cls-1" d="M1.12,12.81V5.42H0V4.2H1.12V3.45a11,11,0,0,1,0-1.29A2.29,2.29,0,0,1,3.6,0l.32,0a4.42,4.42,0,0,1,.71.13L5,.22,5,.24,4.7,1.46H4.64L4.42,1.4A2.56,2.56,0,0,0,4,1.31H3.73a1.51,1.51,0,0,0-.39,0,.91.91,0,0,0-.7.79,4.85,4.85,0,0,0-.07.73c0,.32,0,.64,0,1V4.2H4.75L4.3,5.42H2.57v7.39Z"/><path class="cls-1" d="M9.58,12.81V4.21h1.23l.16,1L11,5.13c.11-.12.22-.24.34-.35A2.73,2.73,0,0,1,13.25,4h.25a3,3,0,0,1,.5.1l.23.06.08,0-.53,1.37-.07,0a1.64,1.64,0,0,0-.7-.17,1.76,1.76,0,0,0-1,.39l-.65.53L11,6.51v6.3Z"/><rect class="cls-1" x="5.95" y="4.21" width="1.42" height="8.6"/><path class="cls-1" d="M6.64,2.43a.91.91,0,0,1-.93-.91A1,1,0,0,1,6,.81,1,1,0,0,1,6.62.52h0a.91.91,0,0,1,1,.92.93.93,0,0,1-.92,1Z"/><g id="Ka0Vkh"><path class="cls-1" d="M36.53,4.25l-.27.69q-1.08,2.64-2.14,5.28l-1,2.55a.13.13,0,0,1-.09.07h-1.2L28.3,4.26l-.4,1.27H25.6v7.31H24V5.54H21.53V4.25H30a.29.29,0,0,0,0,.09l.67,1.74,1.63,4.33.09.24,0-.08c.15-.44.3-.88.47-1.31l1.92-5Z"/></g></g></g></svg>