<svg xmlns="http://www.w3.org/2000/svg" viewBox="0 0 70.26 12"><defs><style>.cls-1{fill:#fff;}</style></defs><title>logo_androidtv</title><g id="Layer_2" data-name="Layer 2"><g id="Layer_1-2" data-name="Layer 1"><g id="layer1"><g id="g33668"><g id="g33674"><path id="path33676" class="cls-1" d="M4.55,9.94A2.42,2.42,0,0,1,2.17,7.47,2.43,2.43,0,0,1,4.55,5,2.35,2.35,0,0,1,6.67,6.16a.4.4,0,0,1,.06.21V8.55a.47.47,0,0,1,0,.17A2.45,2.45,0,0,1,4.55,9.94m4.32,1.88V3.15H6.73v.73A3.36,3.36,0,0,0,4.31,3,4.35,4.35,0,0,0,0,7.47,4.37,4.37,0,0,0,4.31,12a3.37,3.37,0,0,0,2.42-.92v.75Zm9.3,0V7.13a4.08,4.08,0,1,0-8.16,0v4.69h2.14V7.13a1.94,1.94,0,1,1,3.88,0v4.69Zm5.44-1.88a2.42,2.42,0,0,1-2.38-2.47,2.43,2.43,0,0,1,4.5-1.31.4.4,0,0,1,.06.21V8.56a.42.42,0,0,1,0,.16,2.45,2.45,0,0,1-2.14,1.22m4.32,1.88V.55H25.79V3.88A3.35,3.35,0,0,0,23.38,3a4.37,4.37,0,0,0-4.32,4.52A4.37,4.37,0,0,0,23.38,12a3.34,3.34,0,0,0,2.41-.92v.75Zm3.28,0V7.19a1.87,1.87,0,0,1,2.09-2.1V3c-2.76,0-4.23,1.46-4.23,4.21v4.63Zm6.77-2a2.36,2.36,0,1,1,2.36-2.36A2.36,2.36,0,0,1,38,9.83M38,12a4.51,4.51,0,1,0-4.53-4.52A4.52,4.52,0,0,0,38,12M44.55,2.5a1.25,1.25,0,0,0,1.24-1.25,1.24,1.24,0,1,0-2.48,0A1.25,1.25,0,0,0,44.55,2.5m1.07.65H43.48v8.67h2.14Zm5.52,6.79a2.47,2.47,0,1,1,2.12-3.78.4.4,0,0,1,.06.21v2.2a.66.66,0,0,1,0,.15,2.45,2.45,0,0,1-2.14,1.22m4.32,1.88V.55H53.32V3.88A3.36,3.36,0,0,0,50.9,3a4.35,4.35,0,0,0-4.31,4.49A4.38,4.38,0,0,0,50.9,12a3.38,3.38,0,0,0,2.42-.93v.75Z"/></g><g id="g33678"><path id="path33680" class="cls-1" d="M66.74,11.82l3.52-8.68H68.49l-2.88,7.53h.6L63.33,3.15H61.51L65,11.82Zm-5.66.1V10.38H60.9a2,2,0,0,1-2.14-2V4.58H61V3.15H58.76V.81H57.19V8.35a3.37,3.37,0,0,0,3.71,3.57Z"/></g></g></g></g></g></svg>