<?xml version="1.0" encoding="UTF-8"?>
<svg width="83px" height="13px" viewBox="0 0 83 13" version="1.1" xmlns="http://www.w3.org/2000/svg" xmlns:xlink="http://www.w3.org/1999/xlink">
    <!-- Generator: Sketch 52.6 (67491) - http://www.bohemiancoding.com/sketch -->
    <title>logo_samsung</title>
    <desc>Created with Sketch.</desc>
    <defs>
        <polygon id="path-1" points="0.0169426326 0.00282075472 9.08669786 0.00282075472 9.08669786 12.8848729 0.0169426326 12.8848729"></polygon>
        <polygon id="path-3" points="0 0 8.37614679 0 8.37614679 12.2352941 0 12.2352941"></polygon>
    </defs>
    <g id="Combined-Site-" stroke="none" stroke-width="1" fill="none" fill-rule="evenodd">
        <g id="3.-PL-VP-Landing-1024" transform="translate(-759.000000, -2936.000000)">
            <g id="logo_samsung" transform="translate(759.000000, 2936.000000)">
                <path d="M35.5135115,0.764705882 C35.6055844,4.8382788 35.6967946,8.87613478 35.7889908,12.9558446 L32.7060874,12.9558446 L32.7060874,2.24628408 C32.6470473,2.23867428 32.5880072,2.23094175 32.5290904,2.22320921 C32.4174196,2.75393112 32.2956417,3.28281194 32.19605,3.81574314 C31.6531031,6.72133511 31.1214957,9.62913637 30.5622788,12.5315371 C30.5286297,12.7059488 30.296167,12.9671366 30.1462866,12.9741327 C29.2467572,13.0156184 28.3443929,12.9947528 27.3764558,12.9947528 C26.7059379,9.4094342 26.0405968,5.85136359 25.3751324,2.29341572 C25.3234877,2.29427489 25.271843,2.29513406 25.2201983,2.29599323 L25.2201983,12.9621043 L22.0825688,12.9621043 C22.1721766,8.90215537 22.2612914,4.8674906 22.3516388,0.778820827 L27.3859466,0.778820827 C27.8805769,3.81868887 28.3773025,6.87181269 28.8741513,9.92493651 C28.9110052,9.93045975 28.947859,9.93598299 28.9848361,9.94138349 C29.4841501,6.8943966 29.9833408,3.84740972 30.4883247,0.764705882 L35.5135115,0.764705882 Z" id="Fill-1" fill="#FFFFFF"></path>
                <path d="M71.5779817,12.9917114 C70.1370486,12.9917114 68.7274484,13.0047235 67.3191168,12.9700247 C67.188711,12.9668026 67.0083248,12.677439 66.9488304,12.4910567 C66.0158202,9.56643973 65.0990473,6.6368658 64.1779614,3.70853112 C64.124429,3.53838285 64.0667105,3.36947383 63.9680182,3.0697006 L63.9680182,12.9953053 C63.0791532,12.9953053 62.1758268,13.015381 61.2757986,12.9725032 C61.1494522,12.9664309 60.9398896,12.6533977 60.9362108,12.4789121 C60.9075419,11.1379256 60.9202272,9.79619565 60.9202272,8.45458959 C60.9201004,6.14302688 60.9202272,3.83146417 60.9202272,1.51990146 L60.9202272,0.764705882 L64.4451156,0.764705882 C65.6371614,0.764705882 65.6362734,0.764953731 65.9756075,1.88721352 C66.7686979,4.50957875 67.5626762,7.13169612 68.357162,9.75368957 C68.4032099,9.90549701 68.4577571,10.054826 68.5554346,10.3454288 L68.5554346,0.810681852 L71.5779817,0.810681852 L71.5779817,12.9917114 Z" id="Fill-3" fill="#FFFFFF"></path>
                <path d="M49.5717689,0.764705882 L52.7700824,0.764705882 L52.7700824,1.44213798 C52.7699521,4.13047631 52.7691701,6.81881464 52.7702127,9.50703347 C52.7704734,10.3867751 53.2664915,10.921049 54.0635611,10.9067093 C54.8195783,10.8932061 55.3238069,10.3590516 55.3265437,9.51946123 C55.3348845,6.851079 55.3296715,4.18281628 55.3296715,1.51431456 L55.3296715,0.769844281 L58.6328969,0.769844281 L58.6328969,1.4160875 C58.6328969,3.92517937 58.6325059,6.43415175 58.6330272,8.94324363 C58.6336788,11.7176203 57.6897326,12.742193 54.6707467,12.9792763 C53.6823596,13.0568303 52.6293311,12.9088922 51.6651844,12.6659535 C50.3803072,12.3419954 49.5743755,11.4342914 49.5438793,10.2158935 C49.4659448,7.11170335 49.506476,4.0050038 49.5021752,0.899260221 C49.5020449,0.865203395 49.5363205,0.831027071 49.5717689,0.764705882" id="Fill-5" fill="#FFFFFF"></path>
                <g id="Group-9" transform="translate(73.862385, 0.000000)">
                    <mask id="mask-2" fill="white">
                        <use xlink:href="#path-1"></use>
                    </mask>
                    <g id="Clip-8"></g>
                    <path d="M5.84880948,4.2865783 C5.81441651,3.89535189 5.80908624,3.56863491 5.75311835,3.25025755 C5.63648685,2.58566321 5.11043945,2.19921981 4.4021474,2.22742736 C3.7448737,2.25355 3.19154037,2.69714434 3.18303731,3.32801226 C3.15473609,5.43106887 3.15384771,7.53486132 3.18138746,9.63791792 C3.18925596,10.2317481 3.86594709,10.7152009 4.51941346,10.6997481 C5.19382018,10.6839274 5.78713058,10.1687104 5.81974679,9.51417264 C5.85134771,8.88391792 5.8266,8.25084245 5.8266,7.55019151 L4.58705719,7.55019151 L4.58705719,5.81493679 L9.08669786,5.81493679 C8.996337,7.37837075 9.0019211,8.96719151 8.78071468,10.5258425 C8.62892875,11.5947858 7.73547309,12.2117953 6.69188135,12.5414557 C5.28913058,12.9846821 3.86950061,12.9944934 2.45520092,12.5962764 C1.09306177,12.2126538 0.126505199,11.3659368 0.0732024465,9.97689906 C-0.0174122324,7.61470094 0.00657400612,5.24367264 0.108356881,2.88135189 C0.16622844,1.53744623 1.0967422,0.707040566 2.3944104,0.317899057 C3.79969939,-0.10349717 5.23011682,-0.103006604 6.63464434,0.323663208 C8.52981101,0.899219811 9.06842263,2.34381415 8.95585229,3.93827642 C8.94722232,4.06067264 8.75279419,4.26793679 8.6395893,4.27124811 C7.71554801,4.29847453 6.79036453,4.2865783 5.84880948,4.2865783" id="Fill-7" fill="#FFFFFF" mask="url(#mask-2)"></path>
                </g>
                <g id="Group-12" transform="translate(0.000000, 0.764706)">
                    <mask id="mask-4" fill="white">
                        <use xlink:href="#path-3"></use>
                    </mask>
                    <g id="Clip-11"></g>
                    <path d="M5.15258042e-05,8.05907561 L3.08746483,8.05907561 C3.08746483,8.40918988 3.08827636,8.72865056 3.0873489,9.04799686 C3.0859577,9.58340518 3.31005631,9.96634624 3.85088403,10.1221305 C4.35426537,10.2671631 4.81602675,10.1890422 5.17078191,9.78905871 C5.50385759,9.41343792 5.55765053,8.75049696 5.23732749,8.3533729 C4.97879677,8.03288281 4.6534886,7.74293192 4.30510976,7.51966402 C3.64359572,7.09554651 2.94231664,6.73204989 2.26178958,6.33641276 C2.01299724,6.19183765 1.76965375,6.03605338 1.53465743,5.87043252 C0.22681659,4.94899491 -0.185905102,3.8348286 0.198528924,2.28190426 C0.504128468,1.04775433 1.46347454,0.203065062 2.9583154,0.0592905987 C3.88601175,-0.030039438 4.85961758,-0.0314119865 5.76876463,0.145875538 C7.61221621,0.505368887 8.37018655,1.74272143 8.04290753,3.62597246 C7.90054173,3.6350084 7.75040842,3.65227964 7.60015917,3.65285154 C6.83140706,3.65559663 6.06242307,3.6541097 5.217387,3.6541097 C5.217387,3.40144639 5.21460461,3.19979613 5.21796667,2.99814586 C5.22724131,2.45861989 5.00604103,2.08254158 4.45385187,1.93796647 C3.9349355,1.80219854 3.48581083,1.89404491 3.19794904,2.3739794 C2.91518831,2.84567859 2.97002464,3.44239409 3.42703276,3.76997568 C4.09364786,4.24773696 4.82785192,4.63376625 5.53411612,5.05731187 C5.92910005,5.2940765 6.32953284,5.52203394 6.72138658,5.76348811 C8.49423493,6.85557926 8.66639552,8.4953173 8.05902222,10.3262971 C7.77626149,11.1783066 7.05562159,11.6592705 6.20826686,11.9173097 C4.90680234,12.3137474 3.58644072,12.3481755 2.27616528,11.9716397 C0.743993968,11.5313948 0.000515258042,10.5166238 5.15258042e-05,8.93727794 C-6.44072553e-05,8.65533359 5.15258042e-05,8.37338923 5.15258042e-05,8.05907561" id="Fill-10" fill="#FFFFFF" mask="url(#mask-4)"></path>
                </g>
                <path d="M19.7981651,12.9996563 C18.7822857,12.9996563 17.8534225,13.0012509 16.9245594,12.997571 C16.8067957,12.997203 16.6891534,12.9703394 16.5335935,12.951081 C15.9975193,9.29419942 15.4635111,5.65130161 14.9296244,2.0084038 C14.8936512,2.00815848 14.8576779,2.00791315 14.8217047,2.00766782 C14.2750573,5.6503203 13.7284098,9.29297278 13.1773873,12.9645741 L9.89908257,12.9645741 C10.6483225,8.88032855 11.3911214,4.83055176 12.1369585,0.764705882 L17.5608969,0.764705882 C18.3027235,4.82184256 19.0411472,8.8599662 19.7981651,12.9996563" id="Fill-13" fill="#FFFFFF"></path>
                <path d="M38.0766549,8.7902713 L41.1494545,8.7902713 C41.1494545,9.15653883 41.1417247,9.49753054 41.1513283,9.83805847 C41.1657337,10.3548215 41.4073462,10.7628289 41.9157512,10.8773817 C42.4093995,10.9886881 42.9423991,10.9956447 43.2999574,10.5147085 C43.5853716,10.1309334 43.6075067,9.38610822 43.2738403,9.05253694 C42.8952009,8.67374744 42.4598769,8.33704567 42.0062827,8.04822882 C41.2382292,7.55917645 40.4219235,7.14456022 39.651879,6.65817457 C38.3416907,5.8307972 37.9463036,4.60468795 38.2259791,3.14576288 C38.4851591,1.79420207 39.4434106,1.06479751 40.7196349,0.880330386 C41.7421838,0.732501611 42.8285614,0.716965097 43.843966,0.889026196 C45.6160638,1.18943746 46.2659463,2.26725415 46.1430905,4.3605096 L43.2607232,4.3605096 C43.2607232,4.11795447 43.2580295,3.8918634 43.2613088,3.66600422 C43.2683358,3.18240123 43.0462819,2.82019174 42.5823814,2.70494327 C42.1000934,2.58505703 41.5769316,2.5847092 41.2827336,3.0869792 C41.0346798,3.5101753 40.9875987,3.99818417 41.3527696,4.37813311 C41.6421658,4.67924004 42.0056971,4.922143 42.3667689,5.14185714 C43.2608403,5.68598298 44.1920378,6.17178891 45.0721723,6.73632091 C46.481793,7.64056924 46.6013694,9.01659426 46.3372705,10.4815484 C46.0834779,11.8887624 45.0827129,12.5402525 43.7705336,12.831968 C42.6266516,13.0864654 41.4841749,13.0487835 40.3586803,12.7399083 C38.9176723,12.3446548 38.1222134,11.3121722 38.0780603,9.8215944 C38.0684567,9.49764648 38.0766549,9.17323479 38.0766549,8.7902713" id="Fill-15" fill="#FFFFFF"></path>
            </g>
        </g>
    </g>
</svg>