<?xml version="1.0" encoding="UTF-8"?>
<svg width="16px" height="7px" viewBox="0 0 16 7" version="1.1" xmlns="http://www.w3.org/2000/svg" xmlns:xlink="http://www.w3.org/1999/xlink">
    <!-- Generator: Sketch 52.6 (67491) - http://www.bohemiancoding.com/sketch -->
    <title>Group 3</title>
    <desc>Created with Sketch.</desc>
    <defs>
        <polygon id="path-1" points="0 0.0689655172 16 0.0689655172 16 7.06896552 0 7.06896552"></polygon>
    </defs>
    <g id="Combined-Site-" stroke="none" stroke-width="1" fill="none" fill-rule="evenodd">
        <g id="4.-EDU-VP-Landing-1440" transform="translate(-294.000000, -335.000000)">
            <g id="Group" transform="translate(81.000000, 326.000000)">
                <g id="Group-3" transform="translate(213.000000, 8.931034)">
                    <mask id="mask-2" fill="white">
                        <use xlink:href="#path-1"></use>
                    </mask>
                    <g id="Clip-2"></g>
                    <path d="M11.9684136,2.41047467 C11.9684136,1.71629572 11.9617203,1.12195313 11.9706447,0.527610545 C11.9778957,0.0399800904 12.2341907,-0.0642567636 12.5836333,0.241027954 C13.7145109,1.22839024 14.8311654,2.23197937 15.9235568,3.25949622 C16.0298119,3.35960761 16.0239554,3.76472868 15.9143537,3.86896553 C14.8275399,4.90308313 13.7111643,5.90667226 12.5928365,6.90778611 C12.4865814,7.0026719 12.2330752,7.10360838 12.1817604,7.05740313 C12.0660232,6.95289124 11.9837522,6.76009432 11.977059,6.59975108 C11.9536327,6.02988628 11.9681347,5.45837128 11.9681347,4.77189321 L11.1373371,4.77189321 C7.74442543,4.77189321 4.35151378,4.77244328 0.958602131,4.77161818 C0.00927850392,4.77134315 -0.00215577009,4.76556749 0.00286415509,3.87116578 C0.0117884665,2.21245215 -0.182315307,2.41680039 1.49406082,2.41267492 C4.70095635,2.40497404 7.90785188,2.41047467 11.1144685,2.41047467 L11.9684136,2.41047467 Z" id="Fill-1" fill="#FFFFFF" mask="url(#mask-2)"></path>
                </g>
            </g>
        </g>
    </g>
</svg>